<svg width="17" height="13" viewBox="0 0 17 13" fill="none" xmlns="http://www.w3.org/2000/svg">
<g clip-path="url(#clip0_13_710)">
<path d="M4.84225 2.31378C4.8543 3.00417 4.30915 3.57327 3.62425 3.58523C2.93936 3.59718 2.37468 3.04745 2.36262 2.35706C2.35058 1.66716 2.89572 1.09756 3.58062 1.08561C4.26552 1.07365 4.8302 1.62388 4.84225 2.31378ZM4.89151 4.56326L2.39189 4.60689L2.53151 12.6057L5.03113 12.562L4.89151 4.56326ZM8.88191 4.49361L6.39828 4.53696L6.5379 12.5357L9.02202 12.4924L8.94873 8.29352C8.90798 5.95887 11.9187 5.71529 11.9628 8.24091L12.0361 12.4398L14.5297 12.3962L14.4413 7.33151C14.3725 3.39211 9.9147 3.61345 8.90071 5.57094L8.88191 4.49361Z" fill="#CDCDCD"/>
</g>
<defs>
<clipPath id="clip0_13_710">
<rect width="16" height="12" fill="white" transform="translate(0.32251 0.642334) rotate(-1)"/>
</clipPath>
</defs>
</svg>
