<svg width="18" height="17" viewBox="0 0 18 17" fill="none" xmlns="http://www.w3.org/2000/svg">
<g clip-path="url(#clip0_13_705)">
<path d="M2.92675 5.94428L8.24715 9.35861C8.46877 9.50095 8.72759 9.57446 8.99095 9.56986C9.25431 9.56526 9.5104 9.48277 9.72692 9.33278L14.9249 5.73485M4.38787 13.2532L13.7198 13.0903C14.0733 13.0842 14.41 12.9378 14.6556 12.6834C14.9013 12.429 15.0358 12.0875 15.0296 11.7339L14.9133 5.06828C14.9071 4.71471 14.7607 4.37808 14.5064 4.13243C14.252 3.88679 13.9105 3.75225 13.5569 3.75842L4.22498 3.92131C3.87141 3.92748 3.53477 4.07385 3.28913 4.32823C3.04348 4.5826 2.90894 4.92414 2.91512 5.27771L3.03146 11.9434C3.03764 12.2969 3.18401 12.6336 3.43838 12.8792C3.69276 13.1249 4.0343 13.2594 4.38787 13.2532Z" stroke="#CDCDCD" stroke-width="1.33333" stroke-linecap="round" stroke-linejoin="round"/>
</g>
<defs>
<clipPath id="clip0_13_705">
<rect width="16" height="16" fill="white" transform="translate(0.833984 0.646729) rotate(-1)"/>
</clipPath>
</defs>
</svg>
