<svg width="17" height="17" viewBox="0 0 17 17" fill="none" xmlns="http://www.w3.org/2000/svg">
<g clip-path="url(#clip0_13_700)">
<path d="M2.40315 3.94885C2.39698 3.59528 2.53152 3.25375 2.77716 2.99937C3.02281 2.745 3.35944 2.59862 3.71301 2.59245L5.89935 2.55429C6.03919 2.55196 6.17623 2.59366 6.29106 2.67351C6.40589 2.75335 6.4927 2.86729 6.53921 2.99919L7.59 5.97664C7.64325 6.12796 7.64015 6.2934 7.58128 6.44263C7.5224 6.59185 7.41169 6.71483 7.26946 6.78902L5.77817 7.5685C6.54409 9.18774 7.87414 10.4722 9.51912 11.1811L10.2461 9.66351C10.3153 9.51878 10.4343 9.40385 10.5814 9.3398C10.7285 9.27575 10.8937 9.26688 11.0468 9.31482L14.0591 10.2611C14.1926 10.303 14.3096 10.3858 14.3934 10.498C14.4773 10.6101 14.5237 10.7457 14.5261 10.8857L14.5642 13.0713C14.5704 13.4249 14.4359 13.7664 14.1902 14.0208C13.9446 14.2752 13.6079 14.4216 13.2544 14.4277L12.5878 14.4394C7.06596 14.5358 2.51117 10.1372 2.41479 4.61542L2.40315 3.94885Z" stroke="#CDCDCD" stroke-width="1.33333" stroke-linecap="round" stroke-linejoin="round"/>
</g>
<defs>
<clipPath id="clip0_13_700">
<rect width="16" height="16" fill="white" transform="translate(0.345215 0.650879) rotate(-1)"/>
</clipPath>
</defs>
</svg>
