<svg width="478" height="339" viewBox="0 0 478 339" fill="none" xmlns="http://www.w3.org/2000/svg">
<path fill-rule="evenodd" clip-rule="evenodd" d="M227.162 109.547C229.404 111.436 231.43 113.208 233.524 114.896C237.044 117.734 240.458 120.455 245.635 118.729C248.468 117.783 248.577 115.819 248.508 113.791C248.203 104.811 247.76 95.798 251.022 87.2143C253.897 79.651 259.362 74.255 266.169 69.9442C274.972 64.3686 284.45 60.4389 294.63 58.666C304.762 56.9008 315.021 55.6866 325.275 54.8478C334.068 54.1284 342.94 53.9263 351.764 54.1214C368.582 54.4941 385.342 55.8718 401.885 59.078C403.765 59.4422 405.408 61.0291 407.161 62.0489C407.03 62.5052 406.901 62.9614 406.77 63.4176C403.449 63.5994 400.13 63.7818 396.24 63.9945C396.847 62.9487 397.168 62.3957 397.803 61.3015C389.259 60.2634 380.987 58.8632 372.659 58.3382C359.816 57.5275 346.899 56.5021 334.081 57.0727C320.479 57.6791 306.852 59.4654 293.437 61.8629C285.948 63.2014 278.696 66.4405 271.657 69.5462C265.667 72.1895 260.655 76.4905 256.585 81.746C252.657 86.8177 250.724 92.5891 250.655 98.9382C250.602 103.879 250.783 108.825 250.977 113.764C251.048 115.546 251.462 117.314 251.746 119.259C244.566 124.593 239.022 123.699 228.546 115.139C227.555 116.839 226.586 118.512 225.606 120.179C222.458 125.54 215.704 126.616 210.925 122.531C209.875 121.634 208.759 120.81 207.745 119.874C204.358 116.751 204.371 116.737 201.211 120.153C198.016 123.607 191.083 122.529 187.725 118.044C186.697 116.671 185.706 115.27 184.514 113.627C183.156 115.629 181.837 117.434 180.664 119.33C176.968 125.297 170.323 125.164 165.888 119.12C164.616 117.386 163.68 115.408 162.438 113.281C161.098 115.146 159.517 117.099 158.202 119.218C155.048 124.301 149.413 126.142 146.5 122.547C144.492 120.07 143.023 116.937 142.093 113.861C140.896 109.901 140.478 105.707 139.605 100.962C135.601 112.064 131.714 122.54 128.047 133.091C124.366 143.685 120.788 154.319 117.378 165.003C113.964 175.697 110.48 186.388 107.639 197.24C104.817 208.02 102.617 218.971 100.404 229.898C98.2507 240.529 96.4259 251.229 94.4576 261.898C93.9424 261.796 93.4271 261.695 92.9119 261.594C94.4351 252.462 95.8368 243.307 97.5168 234.204C99.1934 225.118 100.859 216.012 103.062 207.046C105.476 197.221 108.471 187.539 111.268 177.81C113.033 171.672 114.831 165.542 116.739 159.447C118.883 152.591 121.101 145.759 123.408 138.957C127.258 127.604 130.724 116.088 135.27 105.016C138.514 97.1147 138.869 89.1746 139.381 80.8989C140.294 66.1689 142.154 51.4333 150.526 38.6018C151.793 36.659 153.905 35.1248 155.917 33.8649C157.02 33.1743 159.406 32.8037 160.019 33.4389C161.054 34.5106 161.812 36.6387 161.508 38.0719C160.324 43.6342 158.971 49.1985 157.13 54.5734C154.423 62.4764 151.256 70.2228 148.264 78.0283C146.725 82.0415 144.265 85.9348 143.778 90.0638C143.052 96.2318 143.436 102.58 143.876 108.815C144.1 111.998 144.993 115.345 146.438 118.185C148.664 122.561 152.573 122.553 155.343 118.458C157.14 115.802 158.951 113.076 160.185 110.142C161.312 107.466 161.598 104.446 162.398 101.617C162.84 100.056 163.054 97.6664 165.514 98.4911C167.822 99.2653 167.152 101.567 166.506 103.093C164.569 107.669 164.502 112.098 167.311 116.215C168.489 117.942 170.234 119.45 172.036 120.538C173.83 121.621 177.441 119.284 179.019 116.325C180.316 113.894 181.438 111.368 182.795 108.972C183.232 108.2 184.168 107.71 184.876 107.091C185.345 107.872 186.035 108.599 186.245 109.445C187.199 113.289 189.49 116.178 192.708 118.26C195.292 119.932 198.3 118.804 200.354 115.752C203.769 110.68 203.656 110.788 207.835 115.134C209.93 117.314 212.38 119.242 214.929 120.879C217.79 122.717 220.319 121.537 222.2 119C223.222 117.622 224.079 116.106 224.885 114.587C225.622 113.192 226.194 111.71 227.162 109.547ZM141.825 84.2152C142.237 84.2805 142.533 84.3605 142.548 84.324C148.872 69.0683 155.46 53.9003 158.969 37.2781C154.713 37.0731 152.825 40.2259 151.349 42.66C147.089 49.6814 145.197 57.6181 144.109 65.7141C143.282 71.875 142.58 78.0528 141.825 84.2152Z" fill="#093E45" fill-opacity="0.3"/>
<path fill-rule="evenodd" clip-rule="evenodd" d="M5.45266 246.944C4.8411 243.082 4.00882 239.239 3.66156 235.354C2.81663 225.893 3.57791 216.526 5.5096 207.209C7.27538 198.693 8.4507 190.051 10.3458 181.566C12.39 172.418 15.0808 163.414 17.2445 154.289C17.8898 151.567 17.8849 148.648 17.8757 145.821C17.8336 132.221 17.7387 118.62 17.5643 105.021C17.3956 91.8655 16.8213 78.7091 16.9654 65.559C17.0716 55.8838 17.6185 46.1672 18.76 36.5636C19.8714 27.2176 23.1035 18.3776 29.0342 10.8859C32.2924 6.77018 36.5184 3.63496 41.9557 2.84606C46.631 2.16806 50.9927 7.45169 49.7267 12.2398C49.3436 13.6884 48.4474 15.0023 47.7859 16.3773C47.4513 16.2138 47.116 16.0488 46.7814 15.8853C47.1202 14.7476 47.6418 13.6288 47.7662 12.4686C48.2765 7.71559 46.0721 5.8346 41.3076 6.81299C32.4231 8.63924 28.3475 15.408 25.3614 22.8892C21.3209 33.015 20.1202 43.691 20.1174 54.5615C20.1139 66.976 19.6753 79.3899 19.721 91.8037C19.773 106.043 20.1737 120.28 20.3634 134.52C20.3979 137.114 20.1469 139.712 20.6418 142.563C21.2646 140.983 21.9669 139.429 22.4955 137.819C25.4324 128.868 28.6188 119.984 31.1318 110.914C32.7577 105.046 33.3489 98.894 34.4595 92.8797C34.9572 90.1852 35.5927 87.5161 36.1656 84.8363C36.7497 84.8055 37.3331 84.7746 37.9173 84.7437C38.2997 86.3517 38.9942 87.9575 39.0047 89.5676C39.0357 94.1823 38.5197 98.8154 38.7812 103.409C38.8895 105.308 40.192 107.296 41.3708 108.945C43.8789 112.453 47.866 112.18 50.7178 108.432C51.9557 106.805 53.0137 105.042 54.6515 102.597C55.5738 104.803 56.3899 106.317 56.8482 107.932C58.091 112.311 60.8409 113.333 64.1953 110.176C66.108 108.375 67.3234 105.852 68.9718 103.747C69.5897 102.958 70.5464 102.434 71.3485 101.79C71.9298 102.744 72.9547 103.669 73.0201 104.657C73.4489 111.084 73.3807 111.089 79.8414 109.931C80.0178 110.194 80.1943 110.456 80.3707 110.719C78.7357 111.683 77.2103 113.053 75.4431 113.526C71.8511 114.489 71.7337 110.555 69.8442 109.053C61.986 116.973 58.6934 117.281 54.0006 110.522C43.571 116.719 43.571 116.719 35.4057 105.502C33.3215 112.243 31.3645 118.966 29.1608 125.606C25.5329 136.535 20.923 147.185 19.3386 158.693C18.5759 164.23 18.4423 169.85 17.8912 175.421C17.1461 182.963 16.441 190.516 15.4168 198.023C13.9393 208.853 12.1475 219.641 10.5778 230.46C9.90368 235.106 9.51636 239.794 8.84575 244.44C8.70025 245.449 7.901 246.365 7.40332 247.324C6.7531 247.195 6.10288 247.07 5.45266 246.944ZM7.14675 241.751C10.329 217.919 13.5112 194.086 16.6941 170.255C16.2077 170.191 15.7212 170.127 15.2348 170.064C9.68718 193.59 3.31642 217.009 7.14675 241.751Z" fill="#093E45" fill-opacity="0.3"/>
<path fill-rule="evenodd" clip-rule="evenodd" d="M127.208 39.6967C120.547 37.3672 114.461 38.7681 109.086 44.6343C105.395 48.663 101.6 52.691 98.5469 57.1906C91.6686 67.327 86.8296 78.3497 85.9881 90.7952C85.9375 91.5391 85.9185 92.2845 85.8841 93.0362C94.654 96.2711 97.9852 101.893 96.1513 111.179C95.8743 112.581 94.022 114.004 92.5564 114.71C91.7157 115.116 89.6589 114.479 89.0684 113.654C87.3617 111.271 86.0957 108.57 84.7067 105.967C83.899 104.456 84.3489 102.017 81.547 101.954C81.3136 101.949 80.8096 100.302 80.9523 99.5123C81.9961 93.7247 82.7405 87.8319 84.4206 82.2233C86.4331 75.5044 88.8245 68.8142 91.8739 62.5072C96.353 53.2462 103.125 45.6408 111.35 39.423C115.209 36.506 119.409 34.3148 124.344 36.864C125.483 37.4521 126.263 38.7344 127.208 39.6967ZM86.5357 97.2102C86.1407 101.921 87.349 106.225 89.7053 110.231C90.0448 110.809 90.8096 111.49 91.3741 111.486C91.9568 111.482 92.7799 110.825 93.0745 110.24C95.7738 104.872 92.4714 98.256 86.5357 97.2102Z" fill="#093E45" fill-opacity="0.3"/>
<path fill-rule="evenodd" clip-rule="evenodd" d="M63.2317 41.1797C64.8231 40.574 66.4048 39.59 68.0103 39.55C68.6338 39.5353 69.3107 41.6486 69.9638 42.7933C69.7508 43.0446 69.5385 43.2966 69.3255 43.5485C67.4374 43.1828 65.55 42.8172 63.6626 42.4522C63.5185 42.0283 63.3751 41.6037 63.2317 41.1797Z" fill="#093E45" fill-opacity="0.3"/>
</svg>
